<svg width="230" height="68" viewBox="0 0 230 68" fill="none" xmlns="http://www.w3.org/2000/svg">
<path d="M20.6981 44.292C20.9089 44.4582 21.2751 44.6798 21.7855 44.8792V44.292H20.6981Z" fill="white"/>
<path d="M19.8448 46.3417C19.8448 46.4414 19.8892 46.663 20.1 46.6852L20.1555 45.8763L20.1666 45.7545L20.1888 45.411H19.8448V46.3417ZM21.7976 41.389V43.2283C21.5868 43.1286 21.1763 42.8073 21.1763 42.3308C21.1763 41.8544 21.5868 41.4998 21.7976 41.389ZM21.7976 44.8792V44.2919H20.7103C20.91 44.4581 21.2762 44.6797 21.7976 44.8792ZM21.5313 45.3002H21.5203C21.5313 45.3002 21.5313 45.3002 21.5313 45.3002Z" fill="white"/>
<path d="M22.962 48.3023C22.5736 47.7927 22.274 47.1611 22.1964 46.6847H21.4641C21.2865 46.6847 20.9426 46.7733 20.9426 47.0836V47.9145C20.9426 48.125 21.0424 48.535 21.4641 48.535H22.4959C22.6291 48.5239 22.851 48.4796 22.962 48.3023Z" fill="white"/>
<path d="M23.0399 48.0364V47.15C23.0399 46.7623 22.7292 46.6847 22.2077 46.6847C22.2854 47.1611 22.585 47.7816 22.9733 48.3023C23.0066 48.2359 23.0399 48.1472 23.0399 48.0364Z" fill="white"/>
<path d="M30.3516 44.292C30.1408 44.4582 29.7746 44.6798 29.2642 44.8792V44.292H30.3516Z" fill="white"/>
<path d="M31.2064 46.3417C31.2064 46.4414 31.162 46.663 30.9512 46.6852L30.8957 45.8763L30.8846 45.7545L30.8624 45.411H31.2064V46.3417ZM29.2536 41.389V43.2283C29.4644 43.1286 29.8749 42.8073 29.8749 42.3308C29.8749 41.8544 29.4644 41.4998 29.2536 41.389ZM29.2536 44.8792V44.2919H30.3409C30.1412 44.4581 29.7751 44.6797 29.2536 44.8792ZM29.5199 45.3002H29.531C29.5199 45.3002 29.5199 45.3002 29.5199 45.3002Z" fill="white"/>
<path d="M28.0881 48.3023C28.4764 47.7927 28.776 47.1611 28.8537 46.6847H29.586C29.7635 46.6847 30.1074 46.7733 30.1074 47.0836V47.9145C30.1074 48.125 30.0076 48.535 29.586 48.535H28.5541C28.4209 48.5239 28.199 48.4796 28.0881 48.3023Z" fill="white"/>
<path d="M28.0107 48.0364V47.15C28.0107 46.7623 28.3213 46.6847 28.8428 46.6847C28.7651 47.1611 28.4656 47.7816 28.0772 48.3023C28.0439 48.2359 28.0107 48.1472 28.0107 48.0364Z" fill="white"/>
<path d="M23.7277 38.918C23.9385 39.3501 24.6042 40.2032 25.5252 40.2032C26.4572 40.2032 27.1007 39.3501 27.3115 38.918C26.9232 39.5163 26.2686 39.9152 25.5252 39.9152C24.7818 39.9152 24.116 39.5052 23.7277 38.918Z" fill="white"/>
<path d="M21.5755 34.4639V34.3752H21.5533L21.5755 34.4639ZM25.5255 40.7572V40.8458L25.5477 40.6796L25.5255 40.7572ZM20.5769 39.5163C20.5436 39.483 20.4882 39.4941 20.4549 39.5273C20.4216 39.5606 20.4327 39.616 20.466 39.6492L20.5769 39.5163ZM19.3786 38.9512V38.8626H19.3564L19.3342 38.8736L19.3786 38.9512ZM20.6981 44.292L20.699 44.203H20.4438L20.6435 44.3581L20.6981 44.292ZM21.054 44.9675C21.0096 44.9453 20.9653 44.9564 20.932 44.9897C20.9098 45.034 20.9209 45.0783 20.9542 45.1115L21.054 44.9675ZM29.4755 34.4639L29.4977 34.3752H29.4755V34.4639ZM25.5255 40.7572L25.5033 40.6686L25.5255 40.8347V40.7572ZM30.5851 39.6492C30.6183 39.616 30.6294 39.5606 30.5962 39.5273C30.5629 39.4941 30.5074 39.483 30.4741 39.5163L30.5851 39.6492ZM31.6724 38.9512L31.7168 38.8736L31.6946 38.8626H31.6724V38.9512ZM30.3516 44.292L30.4075 44.3581L30.6073 44.203H30.3521L30.3516 44.292ZM30.0969 45.1115C30.1412 45.0894 30.1523 45.034 30.1191 44.9897C30.0969 44.9453 30.0414 44.9342 29.997 44.9675L30.0969 45.1115ZM25.5255 38.8847C24.8598 38.8847 24.3161 38.3529 24.3161 37.6881H24.1497C24.1497 38.4415 24.771 39.0509 25.5255 39.0509V38.8847ZM24.3272 37.6881C24.3272 37.0233 24.8709 36.4915 25.5366 36.4915V36.3253C24.7821 36.3253 24.1608 36.9347 24.1608 37.6881H24.3272ZM23.4507 37.6881C23.4507 36.5469 24.3827 35.6162 25.5366 35.6162V35.4389C24.2939 35.4389 23.2842 36.4472 23.2842 37.6881H23.4507ZM21.5533 34.3752C21.0873 34.4861 20.1442 35.0068 20.0554 36.2477L20.2219 36.2588C20.3106 35.1176 21.1761 34.6301 21.5866 34.5304L21.5533 34.3752ZM25.5255 34.3752H22.7849V34.5415H25.5255V34.3752ZM22.7849 34.3752H21.5755V34.5415H22.7849V34.3752ZM22.7073 34.4639V37.2006H22.8737V34.4639H22.7073ZM22.7073 37.2006C22.7184 38.1313 23.2953 40.17 25.5033 40.8458L25.5588 40.6796C23.4396 40.037 22.8848 38.087 22.8848 37.2006H22.7073ZM25.5255 40.6686C24.9153 40.6796 23.95 40.6132 22.9957 40.4359C22.0415 40.2586 21.1095 39.9594 20.5769 39.5273L20.466 39.6603C21.0318 40.1256 21.9971 40.4359 22.9625 40.6132C23.9278 40.7904 24.9042 40.8569 25.5255 40.8569V40.6686ZM20.0554 36.2588C19.9667 37.389 19.9223 38.4858 19.9112 38.9512L20.0776 38.9623C20.0887 38.4969 20.1331 37.4111 20.2219 36.281L20.0554 36.2588ZM19.9112 38.9401C19.9112 38.9623 19.9112 38.9844 19.9112 39.0066H20.0776C20.0776 38.9844 20.0776 38.9623 20.0776 38.9401H19.9112ZM19.3342 38.8736C19.1234 39.0066 18.7351 39.4609 18.7351 40.2808H18.9015C18.9015 39.5163 19.2566 39.1174 19.423 39.0177L19.3342 38.8736ZM18.7351 40.2808V44.3027H18.9015V40.2808H18.7351ZM18.7351 44.3138C18.7573 44.5021 18.8016 44.7902 18.8904 45.034C18.9348 45.1558 19.0014 45.2666 19.079 45.3553C19.1567 45.4439 19.2566 45.5104 19.3897 45.5104V45.3442C19.3231 45.3442 19.2677 45.311 19.2122 45.2556C19.1567 45.1891 19.1012 45.1004 19.0568 44.9897C18.9681 44.7681 18.9237 44.4911 18.9126 44.3138H18.7351ZM20 38.8626H19.8446V39.0287H20V38.8626ZM19.9334 45.4218V38.9512H19.767V45.4218H19.9334ZM19.8446 38.8626H19.4896V39.0287H19.8446V38.8626ZM19.4896 38.8626H19.3786V39.0287H19.4896V38.8626ZM19.3786 45.5104H19.4896V45.3442H19.3786V45.5104ZM19.4896 45.5104H19.8446V45.3442H19.4896V45.5104ZM19.4008 38.9512V45.4218H19.5672V38.9512H19.4008ZM19.9112 39.0066C19.889 39.206 19.9223 39.5384 20.0998 39.8708L20.2552 39.7822C20.0887 39.483 20.0665 39.1839 20.0776 39.0177L19.9112 39.0066ZM20.0998 39.8708C20.2552 40.1367 20.5104 40.4026 20.9098 40.6021L20.9875 40.447C20.6102 40.2697 20.3883 40.0259 20.2552 39.7932L20.0998 39.8708ZM20.0887 39.8265V45.4218H20.2552V39.8265H20.0887ZM20.1775 45.3331H19.8446V45.4993H20.1775V45.3331ZM19.7559 45.4218V46.3414H19.9223V45.4218H19.7559ZM19.7559 46.3414C19.7559 46.4078 19.767 46.4965 19.8113 46.5851C19.8557 46.6738 19.9445 46.7513 20.0776 46.7735L20.0998 46.6073C20.0221 46.5962 19.9778 46.5519 19.9556 46.5076C19.9223 46.4522 19.9112 46.3857 19.9223 46.3524L19.7559 46.3414ZM20.0111 46.6959V48.8454H20.1775V46.6959H20.0111ZM20.0111 48.8454C20.0111 48.9229 20.0332 49.0337 20.0887 49.1335C20.1553 49.2332 20.2552 49.3218 20.4216 49.3218V49.1556C20.3217 49.1556 20.2662 49.1113 20.233 49.0559C20.1886 48.9894 20.1775 48.9119 20.1775 48.8565L20.0111 48.8454ZM20.9098 40.6021C21.1539 40.7239 21.4202 40.8347 21.6976 40.9345L21.753 40.7793C21.4757 40.6796 21.2205 40.5688 20.9764 40.458L20.9098 40.6021ZM21.6976 40.7683C21.52 40.8569 21.2648 41.0453 21.054 41.3001C20.8432 41.5549 20.6657 41.8873 20.6657 42.2751H20.8321C20.8321 41.9427 20.9875 41.6436 21.1872 41.4109C21.3869 41.1782 21.6199 41.0009 21.7752 40.9234L21.6976 40.7683ZM20.6657 42.2862C20.6657 42.674 20.8543 43.0064 21.0762 43.2501C21.2981 43.5049 21.5755 43.6712 21.753 43.7598L21.8307 43.6047C21.6643 43.5271 21.4091 43.3609 21.1983 43.1282C20.9875 42.8956 20.8321 42.6075 20.8321 42.2751H20.6657V42.2862ZM21.753 43.7598C22.2412 43.9925 23.6837 44.4578 25.5255 44.4578V44.2916C23.7059 44.2916 22.2967 43.8263 21.8307 43.6047L21.753 43.7598ZM21.7087 40.9234C21.7309 40.9345 21.753 40.9345 21.7641 40.9455L21.8196 40.7904C21.7974 40.7793 21.7863 40.7793 21.7641 40.7683L21.7087 40.9234ZM21.7641 40.9455C22.7294 41.289 23.9167 41.5217 25.5255 41.5217V41.3555C23.9278 41.3555 22.7627 41.1228 21.8196 40.7904L21.7641 40.9455ZM21.7087 43.228V43.6822H21.8751V43.228H21.7087ZM21.8307 43.1504C21.742 43.1061 21.5977 43.0064 21.4757 42.8623C21.3536 42.7183 21.2648 42.541 21.2648 42.3305H21.0984C21.0984 42.5964 21.2094 42.818 21.3536 42.9731C21.4868 43.1393 21.6532 43.2501 21.7641 43.3055L21.8307 43.1504ZM21.7087 40.868V41.3776H21.8751V40.868H21.7087ZM21.7087 41.3887V43.228H21.8751V41.3887H21.7087ZM21.2648 42.3305C21.2648 42.12 21.3536 41.9316 21.4757 41.7765C21.5977 41.6214 21.742 41.5106 21.8307 41.4552L21.742 41.3001C21.631 41.3666 21.4646 41.4884 21.3314 41.6546C21.1983 41.8319 21.0762 42.0535 21.0762 42.3194L21.2648 42.3305ZM21.7087 43.6822V44.2916H21.8751V43.6822H21.7087ZM20.699 44.3802H21.7863V44.2141H20.699V44.3802ZM20.9542 45.1115C21.0762 45.1891 21.2538 45.2777 21.4868 45.3774L21.5533 45.2223C21.3203 45.1337 21.1539 45.034 21.054 44.9675L20.9542 45.1115ZM20.4327 49.3107H24.2939V49.1446H20.4327V49.3107ZM20.6435 44.3581C20.8654 44.5243 21.2316 44.757 21.753 44.9564L21.8196 44.8013C21.3092 44.6018 20.9542 44.3802 20.7434 44.2251L20.6435 44.3581ZM21.8751 44.8788V44.2916H21.7087V44.8788H21.8751ZM21.7087 44.8788V44.901H21.8751V44.8788H21.7087ZM21.7641 44.9564C22.5963 45.2888 23.839 45.588 25.5366 45.588V45.4218C23.8612 45.4218 22.6407 45.1337 21.8307 44.8013L21.7641 44.9564ZM21.4979 45.3885C22.2634 45.6987 23.6393 46.0644 25.5255 46.0644V45.8982C23.6504 45.8982 22.3078 45.5436 21.5644 45.2334L21.4979 45.3885ZM21.4868 45.3774C21.4979 45.3774 21.4979 45.3774 21.4868 45.3774L21.5644 45.2223C21.5644 45.2223 21.5533 45.2223 21.5533 45.2112L21.4868 45.3774ZM21.4868 45.3774H21.4979L21.5644 45.2223H21.5533L21.4868 45.3774ZM21.5644 45.2223H21.5533L21.4868 45.3774H21.4979L21.5644 45.2223ZM22.0859 45.7209C21.9306 45.4439 21.7198 45.2888 21.5644 45.2223L21.4979 45.3774C21.6088 45.4328 21.7974 45.5547 21.9306 45.7985L22.0859 45.7209ZM20.0887 45.4107L20.0665 45.7541L20.233 45.7652L20.2552 45.4218L20.0887 45.4107ZM22.0082 45.6766H20.1553V45.8428H22.0082V45.6766ZM20.0665 45.7541L20.0554 45.876L20.2219 45.8871L20.233 45.7652L20.0665 45.7541ZM20.0665 45.876L20.0111 46.6848L20.1775 46.6959L20.233 45.8871L20.0665 45.876ZM22.2745 46.4854C22.2745 46.2417 22.2302 46.0311 22.1525 45.8539L21.9971 45.9203C22.0637 46.0755 22.1081 46.2527 22.1081 46.4854H22.2745ZM22.1525 45.8539C22.1303 45.8095 22.1081 45.7652 22.0859 45.7209L21.9306 45.8095C21.9528 45.8428 21.975 45.8871 21.9861 45.9203L22.1525 45.8539ZM20.1553 45.9647H22.0748V45.7985H20.1553V45.9647ZM22.097 46.4854C22.097 46.5519 22.1081 46.6294 22.1192 46.707L22.2856 46.6848C22.2745 46.6184 22.2634 46.5519 22.2634 46.4965H22.097V46.4854ZM22.208 46.5962H21.4757V46.7624H22.208V46.5962ZM21.4646 46.5962C21.3647 46.5962 21.2205 46.6184 21.0984 46.6959C20.9764 46.7624 20.8654 46.8843 20.8654 47.0837H21.0318C21.0318 46.9729 21.0873 46.8954 21.1872 46.851C21.2759 46.7956 21.398 46.7735 21.4757 46.7735L21.4646 46.5962ZM20.8654 47.0837C20.8654 47.0948 20.8654 47.0948 20.8654 47.0948H21.0318L20.8654 47.0837ZM20.8654 47.9036C20.8654 48.0144 20.8876 48.1917 20.9875 48.3357C21.0762 48.4908 21.2316 48.6127 21.4757 48.6127V48.4465C21.3092 48.4465 21.1983 48.3579 21.1317 48.2582C21.0651 48.1474 21.0429 48.0033 21.0429 47.9147L20.8654 47.9036ZM21.4646 48.6127C21.4757 48.6127 21.4757 48.6127 21.4646 48.6127C21.4757 48.6127 21.4757 48.6127 21.4757 48.6127V48.4465L21.4646 48.6127ZM23.1178 48.0366C23.1178 48.0255 23.1178 48.0255 23.1178 48.0255H22.9514L23.1178 48.0366ZM23.1178 47.1502C23.1178 47.0394 23.0956 46.9508 23.0512 46.8732C23.0068 46.7956 22.9292 46.7402 22.8515 46.6959C22.6851 46.6184 22.4632 46.5962 22.1969 46.5962V46.7624C22.4632 46.7624 22.6518 46.7846 22.7738 46.84C22.8293 46.8732 22.8737 46.9064 22.8959 46.9507C22.9181 46.9951 22.9403 47.0616 22.9403 47.1391L23.1178 47.1502ZM20.7988 40.735C20.7545 40.735 20.6879 40.7461 20.6324 40.7793C20.5658 40.8237 20.5214 40.8901 20.5214 41.0009H20.6879C20.6879 40.9566 20.7101 40.9345 20.7212 40.9234C20.7434 40.9123 20.7766 40.9012 20.7988 40.9012V40.735ZM20.5104 41.0009C20.5104 41.1006 20.5547 41.1782 20.6213 41.2225C20.6768 41.2669 20.7434 41.2779 20.7877 41.2669V41.1006C20.7655 41.1006 20.7323 41.1006 20.7101 41.0785C20.6879 41.0674 20.6768 41.0453 20.6768 41.0009H20.5104ZM20.7877 41.2669C20.8321 41.2669 20.8987 41.2558 20.9431 41.2115C20.9986 41.1671 21.0429 41.1006 21.0429 41.0009H20.8765C20.8765 41.0453 20.8543 41.0674 20.8432 41.0785C20.821 41.0896 20.7988 41.1006 20.7877 41.1006V41.2669ZM21.054 41.0009C21.054 40.9012 21.0096 40.8347 20.9542 40.7904C20.8987 40.7461 20.8321 40.735 20.7988 40.735V40.9012C20.8099 40.9012 20.8432 40.9123 20.8543 40.9234C20.8654 40.9345 20.8876 40.9566 20.8876 41.0009H21.054ZM20.8099 43.2834C20.7655 43.2834 20.699 43.2945 20.6435 43.3277C20.5769 43.372 20.5325 43.4385 20.5325 43.5493H20.699C20.699 43.505 20.7212 43.4828 20.7323 43.4717C20.7545 43.4606 20.7877 43.4495 20.8099 43.4495V43.2834ZM20.5214 43.5493C20.5214 43.649 20.5658 43.7265 20.6324 43.7709C20.6879 43.8152 20.7545 43.8263 20.7988 43.8152V43.649C20.7766 43.649 20.7434 43.649 20.7212 43.6268C20.699 43.6158 20.6879 43.5936 20.6879 43.5493H20.5214ZM20.7988 43.8152C20.8432 43.8152 20.9098 43.8041 20.9542 43.7598C21.0096 43.7155 21.054 43.649 21.054 43.5493H20.8876C20.8876 43.5936 20.8654 43.6158 20.8543 43.6268C20.8321 43.6379 20.8099 43.649 20.7988 43.649V43.8152ZM21.0651 43.5493C21.0651 43.4496 21.0207 43.3831 20.9653 43.3388C20.9098 43.2944 20.8432 43.2834 20.8099 43.2834V43.4495C20.821 43.4495 20.8543 43.4606 20.8654 43.4717C20.8765 43.4828 20.8987 43.505 20.8987 43.5493H21.0651ZM23.029 48.2471C22.6407 47.7374 22.3522 47.128 22.2856 46.6738L22.1192 46.6959C22.1969 47.1945 22.5075 47.826 22.8959 48.3468L23.029 48.2471ZM20.8654 47.0837V47.9147H21.0318V47.0837H20.8654ZM21.4646 48.6127H22.4964V48.4465H21.4646V48.6127ZM22.4964 48.6127C22.6407 48.6127 22.8959 48.5573 23.029 48.3468L22.8848 48.2582C22.796 48.4022 22.6074 48.4465 22.4964 48.4465V48.6127ZM23.0401 48.3468C23.0956 48.2582 23.1289 48.1584 23.1289 48.0366H22.9625C22.9625 48.1252 22.9403 48.1917 22.907 48.2471L23.0401 48.3468ZM22.8959 48.3468C23.0956 48.6127 23.3286 48.8565 23.5616 49.0227C23.7946 49.1999 24.0498 49.3107 24.2828 49.3107V49.1446C24.0942 49.1446 23.8834 49.0559 23.6615 48.8897C23.4396 48.7346 23.2287 48.5019 23.029 48.2471L22.8959 48.3468ZM23.1178 48.0366V47.1502H22.9514V48.0366H23.1178ZM23.8057 38.8626C23.5838 38.5191 23.4507 38.1091 23.4507 37.677H23.2731C23.2731 38.1424 23.4174 38.5856 23.6615 38.9512L23.8057 38.8626ZM23.6504 38.9512C23.7613 39.1728 23.9832 39.5052 24.305 39.7822C24.6268 40.0592 25.0373 40.2808 25.5255 40.2808V40.1035C25.0928 40.1035 24.7155 39.904 24.416 39.6381C24.1164 39.3833 23.9056 39.0731 23.8057 38.8626L23.6504 38.9512ZM25.5255 39.8265C24.8154 39.8265 24.1719 39.4387 23.7946 38.8736L23.6504 38.9623C24.0498 39.5716 24.7377 39.9927 25.5255 39.9927V39.8265ZM25.5255 39.0509C26.28 39.0509 26.9014 38.4415 26.9014 37.6881H26.7349C26.7349 38.3529 26.1912 38.8847 25.5255 38.8847V39.0509ZM26.9014 37.6881C26.9014 36.9347 26.28 36.3253 25.5255 36.3253V36.4915C26.1912 36.4915 26.7349 37.0233 26.7349 37.6881H26.9014ZM27.7779 37.6881C27.7779 36.4472 26.7682 35.4389 25.5255 35.4389V35.6051C26.6794 35.6051 27.6115 36.5358 27.6115 37.677H27.7779V37.6881ZM29.4533 34.5415C29.8749 34.6412 30.7404 35.1176 30.8181 36.2699L30.9845 36.2588C30.8957 35.0179 29.9526 34.4971 29.4866 34.3863L29.4533 34.5415ZM25.5255 34.5415H28.2661V34.3752H25.5255V34.5415ZM28.2661 34.5415H29.4755V34.3752H28.2661V34.5415ZM28.1773 34.4639V37.2006H28.3438V34.4639H28.1773ZM28.1773 37.2006C28.1662 38.087 27.6115 40.037 25.5033 40.6796L25.5588 40.8458C27.7779 40.17 28.3549 38.1313 28.3549 37.2006H28.1773ZM25.5255 40.8458C26.1469 40.8569 27.1233 40.7904 28.0886 40.6021C29.0539 40.4248 30.0081 40.1256 30.5851 39.6492L30.4741 39.5163C29.9415 39.9594 29.0206 40.2475 28.0553 40.4248C27.1011 40.6021 26.1358 40.6686 25.5255 40.6575V40.8458ZM30.8181 36.2699C30.9068 37.4 30.9512 38.4858 30.9623 38.9512L31.1287 38.9401C31.1176 38.4748 31.0733 37.3779 30.9845 36.2477L30.8181 36.2699ZM30.9623 38.9512C30.9623 38.9733 30.9623 38.9955 30.9623 39.0177H31.1287C31.1287 38.9955 31.1287 38.9733 31.1287 38.9512H30.9623ZM31.628 39.0177C31.7834 39.1174 32.1495 39.5163 32.1495 40.2808H32.316C32.316 39.4609 31.9276 39.0066 31.7168 38.8736L31.628 39.0177ZM32.1495 40.2808V44.3027H32.316V40.2808H32.1495ZM32.1495 44.2916C32.1384 44.48 32.094 44.7459 32.0053 44.9675C31.9609 45.0783 31.9165 45.178 31.8499 45.2334C31.7945 45.2999 31.7279 45.322 31.6724 45.322V45.4882C31.7945 45.4882 31.8943 45.4217 31.9831 45.3331C32.0608 45.2445 32.1162 45.1337 32.1717 45.0118C32.2605 44.7681 32.316 44.48 32.327 44.2916H32.1495ZM31.0511 39.0398H31.2064V38.8736H31.0511V39.0398ZM31.2952 45.4218V38.9512H31.1287V45.4218H31.2952ZM31.2064 39.0398H31.5615V38.8736H31.2064V39.0398ZM31.5615 39.0398H31.6724V38.8736H31.5615V39.0398ZM31.6724 45.3331H31.5615V45.4993H31.6724V45.3331ZM31.5615 45.3331H31.2064V45.4993H31.5615V45.3331ZM31.4727 38.9512V45.4218H31.6391V38.9512H31.4727ZM30.9734 39.0287C30.9956 39.1949 30.9734 39.4941 30.7959 39.7932L30.9512 39.8819C31.1398 39.5495 31.1731 39.2171 31.1398 39.0177L30.9734 39.0287ZM30.7959 39.7822C30.6627 40.0259 30.4297 40.2697 30.0636 40.4359L30.1412 40.591C30.5407 40.4026 30.7959 40.1256 30.9512 39.8597L30.7959 39.7822ZM30.7848 39.8265V45.4218H30.9512V39.8265H30.7848ZM30.8735 45.5104H31.2064V45.3442H30.8735V45.5104ZM31.1176 45.4218V46.3414H31.2841V45.4218H31.1176ZM31.1176 46.3414C31.1176 46.3857 31.1065 46.4411 31.0844 46.4965C31.0622 46.5519 31.0178 46.5851 30.9401 46.5962L30.9623 46.7624C31.0955 46.7402 31.1842 46.6627 31.2286 46.574C31.273 46.4854 31.2841 46.3968 31.2841 46.3303L31.1176 46.3414ZM30.8624 46.6959V48.8454H31.0289V46.6959H30.8624ZM30.8624 48.8454C30.8624 48.9008 30.8403 48.9783 30.807 49.0448C30.7737 49.1002 30.7182 49.1446 30.6183 49.1446V49.3107C30.7848 49.3107 30.8957 49.2221 30.9512 49.1224C31.0067 49.0227 31.0289 48.9119 31.0289 48.8343L30.8624 48.8454ZM30.0636 40.4359C29.8195 40.5467 29.5643 40.6575 29.2869 40.7572L29.3424 40.9123C29.6308 40.8126 29.886 40.7018 30.1301 40.5799L30.0636 40.4359ZM29.2758 40.9234C29.4311 41.012 29.6752 41.1782 29.8639 41.4109C30.0636 41.6436 30.2189 41.9427 30.2189 42.2751H30.3853C30.3853 41.8873 30.2078 41.5549 29.997 41.3001C29.7862 41.0453 29.531 40.8569 29.3535 40.7683L29.2758 40.9234ZM30.2189 42.2862C30.2189 42.6186 30.0636 42.9066 29.8528 43.1393C29.6419 43.372 29.3867 43.5382 29.2203 43.6158L29.298 43.7709C29.4866 43.6822 29.7529 43.505 29.9748 43.2612C30.1967 43.0175 30.3853 42.6851 30.3853 42.2973L30.2189 42.2862ZM29.2203 43.6047C28.7543 43.8263 27.3452 44.2916 25.5255 44.2916V44.4578C27.3785 44.4578 28.8098 43.9925 29.298 43.7598L29.2203 43.6047ZM29.2869 40.7683C29.2647 40.7793 29.2536 40.7793 29.2314 40.7904L29.2869 40.9455C29.3091 40.9345 29.3313 40.9345 29.3424 40.9234L29.2869 40.7683ZM29.2314 40.7904C28.2883 41.1228 27.1233 41.3555 25.5255 41.3555V41.5217C27.1344 41.5217 28.3327 41.289 29.2869 40.9455L29.2314 40.7904ZM29.1759 43.228V43.6822H29.3424V43.228H29.1759ZM29.298 43.3055C29.4089 43.2501 29.5754 43.1393 29.7085 42.9731C29.8417 42.8069 29.9637 42.5964 29.9637 42.3305H29.7973C29.7973 42.541 29.7085 42.7294 29.5865 42.8623C29.4644 43.0064 29.3202 43.1061 29.2314 43.1504L29.298 43.3055ZM29.1759 40.868V41.3776H29.3424V40.868H29.1759ZM29.1759 41.3887V43.228H29.3424V41.3887H29.1759ZM29.9637 42.3305C29.9637 42.0646 29.8528 41.843 29.7085 41.6657C29.5754 41.4885 29.4089 41.3666 29.298 41.3112L29.2092 41.4663C29.298 41.5217 29.4533 41.6325 29.5643 41.7876C29.6863 41.9427 29.7751 42.1311 29.7751 42.3416L29.9637 42.3305ZM29.1759 43.6822V44.2916H29.3424V43.6822H29.1759ZM30.3521 44.203H29.2647V44.3692H30.3521V44.203ZM29.997 44.9675C29.886 45.034 29.7196 45.1226 29.4977 45.2223L29.5643 45.3774C29.7973 45.2777 29.9748 45.1891 30.0969 45.1115L29.997 44.9675ZM30.6183 49.1446H26.7571V49.3107H30.6183V49.1446ZM30.2966 44.2251C30.0858 44.3802 29.7418 44.6018 29.2203 44.8013L29.2869 44.9564C29.8084 44.7459 30.1745 44.5243 30.3964 44.3581L30.2966 44.2251ZM29.3424 44.8788V44.2916H29.1759V44.8788H29.3424ZM29.1759 44.8788V44.901H29.3424V44.8788H29.1759ZM29.2314 44.8013C28.4214 45.1226 27.2009 45.4218 25.5255 45.4218V45.588C27.2231 45.588 28.4547 45.2888 29.298 44.9564L29.2314 44.8013ZM29.4866 45.2223C28.7432 45.5215 27.3896 45.8871 25.5255 45.8871V46.0533C27.4117 46.0533 28.7876 45.6987 29.5532 45.3774L29.4866 45.2223ZM29.4977 45.2223C29.4977 45.2223 29.4866 45.2223 29.4866 45.2334L29.5532 45.3885H29.5643L29.4977 45.2223ZM29.4977 45.2223C29.4866 45.2223 29.4866 45.2223 29.4977 45.2223L29.5532 45.3885H29.5643L29.4977 45.2223ZM29.5532 45.3885H29.5643L29.4977 45.2334H29.4866L29.5532 45.3885ZM29.1094 45.8095C29.2425 45.5658 29.4311 45.4328 29.5421 45.3885L29.4755 45.2334C29.3202 45.2999 29.1094 45.455 28.954 45.732L29.1094 45.8095ZM30.7848 45.4218L30.807 45.7652L30.9734 45.7541L30.9512 45.4107L30.7848 45.4218ZM29.0428 45.8539H30.8957V45.6877H29.0428V45.8539ZM30.807 45.7652L30.8181 45.8871L30.9845 45.876L30.9734 45.7541L30.807 45.7652ZM30.8181 45.8871L30.8735 46.6959L31.04 46.6848L30.9845 45.876L30.8181 45.8871ZM28.954 46.4854C28.954 46.2638 28.9984 46.0755 29.065 45.9203L28.9096 45.8539C28.832 46.0311 28.7876 46.2417 28.7876 46.4854H28.954ZM29.065 45.9203C29.0872 45.876 29.0983 45.8428 29.1205 45.8095L28.9651 45.7209C28.9429 45.7652 28.9207 45.8095 28.8985 45.8539L29.065 45.9203ZM30.8957 45.7985H28.9762V45.9647H30.8957V45.7985ZM28.7765 46.4854C28.7765 46.5408 28.7654 46.6073 28.7543 46.6738L28.9207 46.6959C28.9318 46.6184 28.9429 46.5408 28.9429 46.4743H28.7765V46.4854ZM28.8542 46.7735H29.5865V46.6073H28.8542V46.7735ZM29.5865 46.7735C29.6641 46.7735 29.7751 46.7956 29.8749 46.851C29.9637 46.9064 30.0303 46.9729 30.0303 47.0837H30.1967C30.1967 46.8954 30.0858 46.7735 29.9637 46.6959C29.8417 46.6294 29.6974 46.6073 29.5976 46.5962L29.5865 46.7735ZM30.0192 47.0837C30.0192 47.0948 30.0192 47.0948 30.0192 47.0948H30.1856L30.0192 47.0837ZM30.0192 47.9036C30.0192 47.9923 29.997 48.1363 29.9304 48.2471C29.8639 48.3579 29.764 48.4354 29.5865 48.4354V48.6016C29.8306 48.6016 29.9859 48.4797 30.0747 48.3246C30.1634 48.1806 30.1967 48.0033 30.1967 47.8925L30.0192 47.9036ZM29.5865 48.4354C29.5754 48.4354 29.5754 48.4354 29.5865 48.4354C29.5754 48.4354 29.5754 48.4354 29.5754 48.4354V48.6016L29.5865 48.4354ZM28.0997 48.0366C28.0997 48.0255 28.0997 48.0255 28.0997 48.0255H27.9332L28.0997 48.0366ZM28.0997 47.1502C28.0997 47.0616 28.1219 47.0061 28.1441 46.9618C28.1662 46.9175 28.2106 46.8843 28.2661 46.851C28.3882 46.7956 28.5768 46.7735 28.8431 46.7735V46.6073C28.5879 46.6073 28.3549 46.6294 28.1884 46.707C28.0997 46.7513 28.0331 46.8067 27.9887 46.8843C27.9443 46.9618 27.9221 47.0616 27.9221 47.1613H28.0997V47.1502ZM30.2633 40.9012C30.2855 40.9012 30.3188 40.9012 30.341 40.9234C30.3631 40.9345 30.3742 40.9566 30.3742 41.0009H30.5407C30.5407 40.9012 30.4963 40.8237 30.4297 40.7793C30.3742 40.735 30.3077 40.7239 30.2633 40.735V40.9012ZM30.3631 41.0009C30.3631 41.0453 30.341 41.0674 30.3299 41.0785C30.3077 41.0896 30.2744 41.1006 30.2522 41.1006V41.2669C30.2966 41.2669 30.3631 41.2558 30.4186 41.2225C30.4852 41.1782 30.5296 41.1117 30.5296 41.0009H30.3631ZM30.2633 41.0896C30.2522 41.0896 30.2189 41.0785 30.2078 41.0674C30.1967 41.0563 30.1745 41.0342 30.1745 40.9899H30.0081C30.0081 41.0896 30.0525 41.1561 30.108 41.2004C30.1634 41.2447 30.23 41.2558 30.2633 41.2558V41.0896ZM30.1745 41.0009C30.1745 40.9566 30.1967 40.9345 30.2078 40.9234C30.23 40.9123 30.2522 40.9012 30.2633 40.9012V40.735C30.2189 40.735 30.1523 40.7461 30.108 40.7904C30.0525 40.8347 30.0081 40.9012 30.0081 41.0009H30.1745ZM30.2522 43.4495C30.2744 43.4495 30.3077 43.4496 30.3299 43.4717C30.3521 43.4828 30.3631 43.505 30.3631 43.5493H30.5296C30.5296 43.4496 30.4852 43.372 30.4186 43.3277C30.3631 43.2834 30.2966 43.2723 30.2522 43.2834V43.4495ZM30.3521 43.5493C30.3521 43.5936 30.3299 43.6158 30.3188 43.6268C30.2966 43.6379 30.2633 43.649 30.2411 43.649V43.8152C30.2855 43.8152 30.3521 43.8041 30.4075 43.7709C30.4741 43.7265 30.5185 43.6601 30.5185 43.5493H30.3521ZM30.2522 43.6379C30.2411 43.6379 30.2078 43.6268 30.1967 43.6158C30.1856 43.6047 30.1634 43.5825 30.1634 43.5382H29.997C29.997 43.6379 30.0414 43.7044 30.0969 43.7487C30.1523 43.793 30.2189 43.8041 30.2522 43.8041V43.6379ZM30.1634 43.5493C30.1634 43.505 30.1856 43.4828 30.1967 43.4717C30.2189 43.4606 30.2411 43.4495 30.2522 43.4495V43.2834C30.2078 43.2834 30.1412 43.2944 30.0969 43.3388C30.0414 43.3831 29.997 43.4496 29.997 43.5493H30.1634ZM28.1551 48.3468C28.5546 47.826 28.8542 47.1834 28.9318 46.6959L28.7654 46.6738C28.6988 47.128 28.4103 47.7485 28.022 48.2471L28.1551 48.3468ZM30.0192 47.0837V47.9147H30.1856V47.0837H30.0192ZM29.5865 48.4354H28.5546V48.6016H29.5865V48.4354ZM28.5546 48.4354C28.4325 48.4354 28.255 48.3911 28.1662 48.2471L28.022 48.3357C28.1551 48.5462 28.4214 48.6016 28.5546 48.6016V48.4354ZM28.1551 48.2471C28.1219 48.1917 28.0997 48.1252 28.0997 48.0366H27.9332C27.9332 48.1584 27.9665 48.2582 28.022 48.3468L28.1551 48.2471ZM28.022 48.2471C27.8223 48.5019 27.6115 48.7346 27.3896 48.8897C27.1676 49.0559 26.9568 49.1446 26.7682 49.1446V49.3107C27.0123 49.3107 27.2564 49.1999 27.4894 49.0227C27.7224 48.8454 27.9554 48.6127 28.1551 48.3468L28.022 48.2471ZM28.0997 48.0366V47.1502H27.9332V48.0366H28.0997ZM27.3896 38.9623C27.6337 38.5966 27.7779 38.1534 27.7779 37.6881H27.6004C27.6004 38.1202 27.4672 38.5302 27.2453 38.8736L27.3896 38.9623ZM27.2453 38.8736C27.1455 39.0731 26.9346 39.3944 26.6351 39.6492C26.3355 39.904 25.9693 40.1146 25.5255 40.1146V40.2808C26.0137 40.2808 26.4353 40.0592 26.746 39.7822C27.0567 39.5052 27.2786 39.1728 27.3896 38.9512L27.2453 38.8736ZM25.5255 39.9927C26.3022 39.9927 26.979 39.5716 27.3896 38.9623L27.2453 38.8736C26.8681 39.4387 26.2356 39.8265 25.5255 39.8265V39.9927ZM24.2828 49.3107H26.7571V49.1446H24.2828V49.3107Z" fill="white"/>
<path d="M25.526 31.4062C19.4567 31.4062 14.5303 36.3256 14.5303 42.3862C14.5303 48.4468 19.4567 53.3662 25.526 53.3662C31.5952 53.3662 36.5216 48.4468 36.5216 42.3862C36.5216 36.3256 31.5952 31.4062 25.526 31.4062ZM25.526 52.9562C19.6786 52.9562 14.9297 48.2252 14.9297 42.3751C14.9297 36.525 19.6675 31.794 25.526 31.794C31.3844 31.794 36.1222 36.5361 36.1222 42.3751C36.1222 48.2141 31.3733 52.9562 25.526 52.9562Z" fill="white"/>
<path d="M25.5257 53.3768C22.5854 53.3768 19.8226 52.2355 17.7367 50.1526C15.6507 48.0696 14.5079 45.3108 14.5079 42.3746C14.5079 39.4385 15.6507 36.6797 17.7367 34.5967C19.8116 32.5248 22.5854 31.3725 25.5257 31.3725C28.466 31.3725 31.2288 32.5137 33.3148 34.5967C35.3897 36.6686 36.5435 39.4385 36.5435 42.3746C36.5435 45.3108 35.4007 48.0696 33.3148 50.1526C31.2288 52.2355 28.466 53.3768 25.5257 53.3768ZM25.5257 31.4168C19.4676 31.4168 14.5523 36.3362 14.5523 42.3746C14.5523 48.4131 19.4787 53.3326 25.5257 53.3326C31.5728 53.3326 36.4992 48.4131 36.4992 42.3746C36.4992 36.3362 31.5728 31.4168 25.5257 31.4168ZM25.5257 52.978C22.6853 52.978 20.0224 51.881 18.0252 49.8756C16.0169 47.8702 14.9184 45.2111 14.9184 42.3857C14.9184 39.5604 16.0169 36.8902 18.0252 34.8958C20.0335 32.9015 22.6966 31.794 25.526 31.794C28.3553 31.794 31.0291 32.8904 33.0262 34.8958C35.0345 36.9013 36.133 39.5604 36.133 42.3857C36.133 45.2111 35.0345 47.8813 33.0262 49.8756C31.0291 51.87 28.3551 52.978 25.5257 52.978ZM25.5257 31.8157C19.6895 31.8157 14.9517 36.5578 14.9517 42.3746C14.9517 48.1915 19.7006 52.9336 25.5257 52.9336C31.3509 52.9336 36.0998 48.1915 36.0998 42.3746C36.0998 36.5578 31.362 31.8157 25.5257 31.8157Z" fill="white"/>
<path d="M25.3808 31.6274H25.6693V34.3862H25.3808V31.6274Z" fill="white"/>
<path d="M25.3808 49.1996H25.6693V52.9999H25.3808V49.1996Z" fill="white"/>
<path d="M18.7346 42.131V42.419H14.6958V42.131H18.7346Z" fill="white"/>
<path d="M36.2656 42.131V42.419H32.2268V42.131H36.2656Z" fill="white"/>
<path d="M16.0496 35.6268L16.1717 35.4384L14.4519 34.829L14.3187 35.0174L15.5393 36.3802L15.6613 36.1918L15.3062 35.793L15.5393 35.4384L16.0496 35.6268ZM15.162 35.6268L14.7404 35.1614L15.3395 35.372L15.162 35.6268Z" fill="white"/>
<path d="M16.9261 34.5414L17.0704 34.3752L15.7278 33.2229L15.5836 33.3891L16.0829 33.8212L15.6612 34.3198L15.1619 33.8877L15.0177 34.0539L16.3602 35.2062L16.5045 35.04L15.8388 34.4639L16.2604 33.9653L16.9261 34.5414Z" fill="white"/>
<path d="M17.9688 33.3001L17.9355 33.3334L16.5597 32.4359L16.3932 32.591L17.1699 34.0425L17.1366 34.0757L17.414 34.3749L17.5805 34.2198L17.4584 34.0868L17.9688 33.6214L18.0909 33.7544L18.2573 33.5993L17.9688 33.3001ZM17.3364 33.8763L16.7483 32.8015L17.7691 33.4774L17.3364 33.8763Z" fill="white"/>
<path d="M18.0913 32.5359L18.2356 32.4361C18.4797 32.2589 18.524 31.9376 18.3465 31.6938C18.169 31.4611 17.8472 31.4057 17.6031 31.583L17.4589 31.6827L17.2813 31.8157L18.3243 33.2339L18.5019 33.1009L18.0913 32.5359ZM17.592 31.86L17.7363 31.7603C17.8805 31.6606 18.0802 31.6827 18.1801 31.8268C18.2799 31.9708 18.2578 32.1702 18.1135 32.2699L17.9693 32.3697L17.592 31.86Z" fill="white"/>
<path d="M20.0332 31.483L19.7114 30.918C19.556 30.641 19.201 30.5413 18.9125 30.6964C18.6351 30.8515 18.5353 31.2171 18.6906 31.4941L19.0124 32.0592C19.1677 32.3362 19.5228 32.4359 19.8112 32.2697C20.0886 32.1146 20.1885 31.7711 20.0332 31.483ZM19.7003 32.0924C19.5228 32.1921 19.2898 32.1257 19.1899 31.9484L18.8681 31.3833C18.7683 31.206 18.8237 30.9844 19.0124 30.8736C19.1899 30.7739 19.4118 30.8293 19.5228 31.0177L19.8445 31.5827C19.9444 31.7711 19.8778 31.9927 19.7003 32.0924Z" fill="white"/>
<path d="M20.8987 29.7992L20.6879 29.8879L20.5991 31.3504L20.0887 30.1316L19.8779 30.2203L20.5658 31.849L20.7767 31.7604L20.8654 30.2978L21.3758 31.5166L21.5866 31.428L20.8987 29.7992Z" fill="white"/>
<path d="M22.8735 30.8735L22.8292 30.8846L21.997 29.4664L21.7751 29.5218L21.8195 31.1616L21.764 31.1727L21.875 31.5605L22.0858 31.5051L22.0303 31.3278L22.696 31.1395L22.7515 31.3167L22.9623 31.2613L22.8735 30.8735ZM22.0414 31.1062L21.997 29.8874L22.5962 30.9511L22.0414 31.1062Z" fill="white"/>
<path d="M24.0163 29.0682L23.7944 29.1015L23.8943 29.7552L23.2508 29.8549L23.1509 29.2012L22.929 29.2344L23.2064 30.985L23.4283 30.9518L23.2951 30.0765L23.9387 29.9768L24.0718 30.8521L24.2937 30.8188L24.0163 29.0682Z" fill="white"/>
<path d="M25.1147 29.0017L24.8817 29.0128L24.4934 30.7966L24.7153 30.7855L24.8263 30.2648L25.2479 30.2426L25.4032 30.7523L25.6251 30.7412L25.1147 29.0017ZM24.8817 30.0321L25.0149 29.4116L25.1924 30.021L24.8817 30.0321Z" fill="white"/>
<path d="M26.5238 29.0016C26.2353 28.9794 25.9801 29.201 25.9579 29.4891C25.9357 29.7772 26.1465 30.0209 26.4239 30.0542L25.8692 30.7522L26.0911 30.7743L26.6458 30.0874L26.8234 30.0985L26.7679 30.8297L26.9898 30.8519L27.0453 30.1206L27.1229 29.057L26.5238 29.0016ZM26.8456 29.888L26.4572 29.8547C26.2797 29.8436 26.1465 29.6885 26.1687 29.5112C26.1798 29.334 26.3352 29.201 26.5127 29.2232L26.901 29.2564L26.8456 29.888Z" fill="white"/>
<path d="M30.0969 29.7773L30.0304 29.9989L29.6087 29.8659L29.1427 31.3395L28.9319 31.2731L29.3979 29.7995L28.9652 29.6665L29.0429 29.4449L30.0969 29.7773Z" fill="white"/>
<path d="M30.6739 30.2644L30.4741 30.7298L31.0511 30.9846L30.9623 31.184L30.3743 30.9292L30.1413 31.461L30.7515 31.7269L30.6628 31.9374L29.875 31.594L29.8528 31.5829L30.5629 29.9653L30.5851 29.9763L31.3729 30.3198L31.273 30.5303L30.6739 30.2644Z" fill="white"/>
<path d="M32.5374 30.9628L31.9272 31.3727L31.9716 30.6415L31.7829 30.5307L31.7164 31.5168L30.8953 32.0708L31.0839 32.1815L31.7053 31.7716L31.6609 32.5028L31.8495 32.6137L31.9161 31.6275L32.7372 31.0847L32.5374 30.9628Z" fill="white"/>
<path d="M33.8471 31.8709L33.4476 32.4027L32.926 32.0149L33.3254 31.4831L33.148 31.3502L32.0939 32.7684L32.2714 32.9013L32.804 32.1922L33.3254 32.58L32.793 33.2891L32.9705 33.4221L34.0245 32.0039L33.8471 31.8709Z" fill="white"/>
<path d="M35.0339 32.9348L33.6582 33.4444L34.568 32.4916L34.4015 32.3365L33.181 33.6217L33.3475 33.7768L34.7232 33.2672L33.8134 34.22L33.9688 34.3751L35.1893 33.0899L35.0339 32.9348Z" fill="white"/>
<path d="M35.9768 33.9988L35.0892 34.1539L35.0782 34.1318L35.6773 33.6332L35.5331 33.4559L34.1794 34.586L34.3236 34.7633L34.9117 34.2758L34.9339 34.298L34.6565 35.1622L34.8007 35.3395L35.1224 34.3534L36.1322 34.1761L35.9768 33.9988Z" fill="white"/>
<path d="M36.643 34.907L34.9121 35.5053L35.0343 35.6936L35.5335 35.5164L35.7667 35.8709L35.4115 36.2698L35.5335 36.4581L36.754 35.1064L36.643 34.907ZM35.9329 35.6936L35.7667 35.4388L36.3658 35.2283L35.9329 35.6936Z" fill="white"/>
<path d="M14.7513 37.9871L14.829 37.7766L13.1758 37.1451L13.0981 37.3556L13.9192 37.6658L13.6862 38.2752L12.8651 37.965L12.7874 38.1755L14.4407 38.807L14.5183 38.5965L13.897 38.3638L14.13 37.7544L14.7513 37.9871Z" fill="white"/>
<path d="M12.666 38.5523L12.6105 38.7739L13.0766 39.0287L12.9767 39.4387H12.4441L12.3886 39.6603L14.2194 39.6492L14.2749 39.4276L12.666 38.5523ZM13.2097 39.4387L13.2874 39.1395L13.8421 39.4387H13.2097Z" fill="white"/>
<path d="M14.0303 40.5022L12.8431 40.7681L13.9304 41.2999L13.9082 41.5215L12.4436 40.8456L12.3438 40.8013C12.3327 40.7902 12.3216 40.7902 12.3105 40.7902H12.2994L12.2883 40.7791C12.1995 40.7348 12.1329 40.6683 12.0775 40.5908C12.022 40.5021 11.9998 40.3913 11.9998 40.3027L12.2217 40.3249C12.2106 40.4246 12.2661 40.5354 12.3549 40.5908C12.377 40.6019 12.377 40.6129 12.3992 40.6129H12.4103L12.4769 40.6019L14.0747 40.2805L14.0303 40.5022Z" fill="white"/>
<path d="M13.5092 41.9535H13.8975V41.743H13.5092C13.2207 41.743 12.9766 41.9757 12.9655 42.2637C12.9655 42.3856 12.9988 42.4853 13.0654 42.574L12.1111 42.5629L12.1 42.7845L13.8642 42.8066L13.8753 42.585H13.4315C13.2762 42.5629 13.1763 42.4299 13.1763 42.2637C13.1874 42.0864 13.3427 41.9424 13.5092 41.9535Z" fill="white"/>
<path d="M13.9861 43.9702L13.3314 44.0367L13.2649 43.394L13.9195 43.3276L13.8973 43.106L12.1331 43.2943L12.1553 43.5159L13.0319 43.4273L13.0984 44.0699L12.2219 44.1585L12.2441 44.3801L14.0083 44.1918L13.9861 43.9702Z" fill="white"/>
<path d="M14.219 45.0004C14.1524 44.6902 13.8306 44.4907 13.52 44.5572L12.8764 44.7013C12.5657 44.7677 12.366 45.078 12.4437 45.3993C12.5103 45.7095 12.8209 45.9089 13.1427 45.8314L13.7862 45.6873C14.0858 45.6209 14.2855 45.3106 14.219 45.0004ZM13.7308 45.4768L13.0872 45.6209C12.8875 45.6652 12.6878 45.5322 12.6434 45.3439C12.599 45.1444 12.7322 44.945 12.9208 44.9007L13.5643 44.7566C13.7641 44.7123 13.9638 44.8342 14.0082 45.0336C14.0525 45.2331 13.9305 45.4325 13.7308 45.4768Z" fill="white"/>
<path d="M15.306 47.9703L15.1951 48.0257L13.7083 48.7348L13.6195 48.5465L15.0065 47.8706L14.7291 47.2834L13.331 47.9593L13.2312 47.7598L14.6292 47.084L14.8289 46.9842L15.306 47.9703Z" fill="white"/>
<path d="M15.672 48.5681L15.5832 48.413L15.4612 48.2246L13.9633 49.1664L14.0853 49.3548L14.6845 48.9781L14.7733 49.1332C14.9286 49.388 15.2615 49.4545 15.5056 49.2994C15.7497 49.1443 15.8273 48.8119 15.672 48.5681ZM15.3946 49.1221C15.2393 49.2107 15.0507 49.1775 14.9508 49.0224L14.862 48.8673L15.4057 48.5238L15.4945 48.6789C15.5832 48.834 15.5389 49.0224 15.3946 49.1221Z" fill="white"/>
<path d="M16.494 49.6536C16.2943 49.3987 15.9282 49.3655 15.673 49.5649L15.1626 49.9749C14.9074 50.1744 14.8741 50.54 15.0738 50.7947C15.2735 51.0495 15.6397 51.0828 15.8838 50.8835L16.3942 50.4735C16.6494 50.274 16.6938 49.9084 16.494 49.6536ZM16.2721 50.3072L15.7617 50.7172C15.6064 50.839 15.3623 50.817 15.2402 50.6617C15.1182 50.5067 15.1404 50.2629 15.2957 50.1412L15.8061 49.7311C15.9614 49.6092 16.2055 49.6314 16.3276 49.7864C16.4496 49.9417 16.4275 50.1744 16.2721 50.3072Z" fill="white"/>
<path d="M17.6588 50.9504L16.2719 51.4379L17.1928 50.4961L17.0375 50.3409L15.7948 51.604L15.9501 51.7592L17.337 51.2717L16.4161 52.2135L16.5715 52.3685L17.8141 51.1054L17.6588 50.9504Z" fill="white"/>
<path d="M18.591 51.7372C18.4578 51.5154 18.1472 51.3824 17.9696 51.3382L17.8254 51.5154C17.9696 51.5377 18.3136 51.6817 18.4023 51.8367C18.4356 51.8922 18.4467 51.9587 18.4245 52.014C18.3802 52.1692 18.2692 52.2357 18.1361 52.2357C18.0473 52.2357 17.9807 52.1692 17.8698 52.0805C17.8365 52.0585 17.8032 52.0252 17.7699 52.003L17.7366 51.9807L17.5924 52.1582L17.6146 52.1692C17.6368 52.1913 17.659 52.2025 17.67 52.2135C17.6922 52.2357 17.7144 52.2467 17.7366 52.269C17.8254 52.3465 17.9252 52.424 17.9474 52.4905C17.9918 52.6235 17.9031 52.8118 17.7699 52.8893C17.7144 52.9226 17.6479 52.9226 17.5813 52.9115C17.4038 52.8561 17.1818 52.568 17.1153 52.435L16.971 52.6123C17.0487 52.7785 17.2595 53.0446 17.5036 53.1111C17.6257 53.1443 17.7366 53.1331 17.8476 53.0666C17.9585 53.0001 18.0362 52.9115 18.0917 52.8008C18.1361 52.701 18.1693 52.568 18.1472 52.4573C18.2581 52.4573 18.3358 52.4462 18.4245 52.3797C18.5244 52.3022 18.591 52.2025 18.6243 52.0805C18.6686 51.9587 18.6575 51.8367 18.591 51.7372Z" fill="white"/>
<path d="M19.4231 52.2802L19.2123 52.1472L19.0237 52.0254L18.1028 53.5323L18.5244 53.7871C18.7685 53.9421 19.1014 53.8646 19.2567 53.6098C19.3566 53.4548 19.3566 53.2553 19.2789 53.1113C19.4009 53.089 19.5119 53.0115 19.5785 52.9007C19.7005 52.6902 19.6339 52.4132 19.4231 52.2802ZM19.057 53.5101C18.9682 53.6653 18.7685 53.7096 18.6243 53.6208L18.3913 53.4768L18.7241 52.934L18.9571 53.078C19.1125 53.1665 19.1568 53.355 19.057 53.5101ZM19.3898 52.79C19.3122 52.9118 19.1679 52.945 19.0459 52.8785L18.8351 52.7455L19.0903 52.3245L19.3011 52.4575C19.4231 52.524 19.4675 52.679 19.3898 52.79Z" fill="white"/>
<path d="M20.6658 52.9113C20.3773 52.7783 20.0223 52.9003 19.8891 53.1994L19.6118 53.7977C19.4786 54.0859 19.6007 54.4292 19.9002 54.5732C20.1887 54.7062 20.5327 54.5845 20.6769 54.2964L20.9543 53.6979C21.0764 53.3879 20.9543 53.0443 20.6658 52.9113ZM20.7435 53.5872L20.4661 54.1855C20.3773 54.3739 20.1554 54.4515 19.9668 54.3627C19.7782 54.2742 19.7005 54.0527 19.7893 53.8642L20.0667 53.2659C20.1554 53.0776 20.3773 53.0001 20.566 53.0886C20.7546 53.1773 20.8323 53.3989 20.7435 53.5872Z" fill="white"/>
<path d="M22.0633 53.4874L21.8413 53.4209L20.9648 54.8058L20.9204 54.7836L20.7984 55.1713L21.0092 55.2378L21.0647 55.0606L21.7193 55.2711L21.6638 55.4484L21.8746 55.5149L21.9967 55.1271L21.9523 55.1161L22.0633 53.4874ZM21.7415 55.0496L21.1867 54.8723L21.8303 53.8419L21.7415 55.0496Z" fill="white"/>
<path d="M22.9956 55.2939C22.8181 55.2607 22.6849 55.0944 22.7182 54.9394L22.8736 54.1971C22.9069 54.0419 23.0955 53.9423 23.273 53.9756C23.4172 54.0088 23.506 54.1196 23.5282 54.2414L23.7501 54.2856C23.7501 54.1528 23.7279 54.0419 23.6281 53.9533C23.5504 53.8758 23.4394 53.8203 23.3063 53.7871C23.1731 53.765 23.0511 53.7761 22.9512 53.8093C22.807 53.8758 22.696 53.9976 22.6628 54.1638L22.5074 54.9062C22.4963 54.9504 22.4963 54.9949 22.4963 55.0282C22.5185 55.2497 22.696 55.4602 22.9623 55.5045C23.2175 55.56 23.4283 55.427 23.5393 55.2274C23.5393 55.2164 23.5504 55.2164 23.5504 55.2054L23.3285 55.1609C23.2508 55.2717 23.1288 55.3272 22.9956 55.2939Z" fill="white"/>
<path d="M25.2038 54.0086L25.1927 54.2414L24.7489 54.2081L24.6268 55.737L24.4049 55.726L24.527 54.1859L24.0831 54.1526L24.0942 53.9311L24.5381 53.9643L24.76 53.9754L25.2038 54.0086Z" fill="white"/>
<path d="M26.2462 54.773C26.3349 54.6842 26.3793 54.5624 26.3793 54.4294C26.3682 54.1744 26.1574 53.9862 25.9133 53.9972L25.6581 54.0084L25.4362 54.0194L25.4917 55.7811L25.991 55.759C26.2794 55.7478 26.5124 55.5041 26.5014 55.216C26.5014 55.0277 26.3904 54.8615 26.2462 54.773ZM25.6581 54.2077L25.9133 54.1967C26.0464 54.1967 26.1685 54.2964 26.1685 54.4294C26.1685 54.5624 26.0686 54.6842 25.9355 54.6842L25.6803 54.6952L25.6581 54.2077ZM25.9799 55.5485L25.7025 55.5595L25.6803 54.928L25.9577 54.917C26.1352 54.9057 26.2794 55.0498 26.2794 55.227C26.2905 55.3933 26.1574 55.5485 25.9799 55.5485Z" fill="white"/>
<path d="M27.8888 55.5708L27.2341 55.6595L27.0122 55.6927L26.757 53.9421H26.7903L26.99 53.9089L27.6336 53.8203L27.6669 54.0419L27.0122 54.1416L27.0899 54.6402L27.7113 54.5514L27.7445 54.7732L27.1232 54.8617L27.2009 55.438L27.8555 55.3382L27.8888 55.5708Z" fill="white"/>
<path d="M28.9976 53.4874L28.7757 53.5429L28.9421 54.1855L28.3097 54.3405L28.1433 53.7089L27.9214 53.7644L28.3652 55.4818L28.5871 55.4263L28.3652 54.5732L28.9976 54.418L29.2195 55.2713L29.4414 55.2158L28.9976 53.4874Z" fill="white"/>
<path d="M30.296 53.0003L30.0852 53.0778L30.3182 53.6873L29.719 53.9199L29.486 53.3106L29.2752 53.3881L29.9187 55.039L30.1295 54.9614L29.8078 54.1416L30.4069 53.9089L30.7287 54.7287L30.9395 54.6512L30.296 53.0003Z" fill="white"/>
<path d="M32.1161 53.4099L31.8054 52.8338C31.6501 52.5458 31.3061 52.4348 31.0176 52.5901C30.7291 52.7451 30.6293 53.0996 30.7735 53.3766L31.0842 53.9529C31.2395 54.2409 31.5835 54.3407 31.872 54.1855C32.1605 54.0414 32.2714 53.6869 32.1161 53.4099ZM31.7721 54.0082C31.5946 54.1079 31.3616 54.0304 31.2728 53.8532L30.9622 53.2769C30.8623 53.0996 30.94 52.8671 31.1175 52.7783C31.295 52.6786 31.528 52.7451 31.6168 52.9336L31.9275 53.5096C32.0273 53.6869 31.9497 53.9084 31.7721 54.0082Z" fill="white"/>
<path d="M33.5368 53.1221L32.9819 53.4988L32.8267 53.6096L32.8044 53.6318L31.7948 52.1802L31.8277 52.158L31.9831 52.0472L32.5271 51.6707L32.6602 51.859L32.1165 52.2357L32.405 52.6458L32.9154 52.2912L33.0486 52.4795L32.5271 52.834L32.8599 53.3103L33.4036 52.9448L33.5368 53.1221Z" fill="white"/>
<path d="M35.3558 50.6624L34.8787 50.2191C34.6457 49.9976 34.2795 50.0086 34.0576 50.2413C33.8356 50.4741 33.8579 50.8506 34.0908 51.0612L34.568 51.5044C34.8009 51.726 35.1671 51.7039 35.389 51.4712C35.5998 51.2384 35.5888 50.8729 35.3558 50.6624ZM35.2226 51.3382C35.0784 51.4934 34.8454 51.4934 34.701 51.3604L34.224 50.9171C34.0686 50.7731 34.0686 50.5406 34.2018 50.3964C34.335 50.2523 34.579 50.2413 34.7232 50.3743L35.2004 50.8174C35.3558 50.9504 35.3558 51.1942 35.2226 51.3382Z" fill="white"/>
<path d="M36.1769 49.6208C35.9439 49.4435 35.611 49.4989 35.4335 49.7316L35.3226 49.8756L34.9341 49.5876L35.3336 49.0557L35.1561 48.9228L34.6345 49.6319L36.0549 50.6734L36.1879 50.4961L36.2879 50.3521C36.4653 50.1193 36.4098 49.787 36.1769 49.6208ZM36.1214 50.2301L36.0104 50.3741L35.5 49.9976L35.5998 49.8535C35.6997 49.7094 35.8994 49.6762 36.0437 49.787C36.1991 49.8868 36.2211 50.0973 36.1214 50.2301Z" fill="white"/>
<path d="M37.0532 48.1361C36.798 47.9921 36.4763 48.0807 36.3321 48.3356L36.2434 48.4907L35.633 48.1361L35.3003 48.7123L35.4888 48.8231L35.7108 48.4353L37.0532 49.1998L37.1642 49.0114L37.253 48.8563C37.3974 48.6015 37.3084 48.2802 37.0532 48.1361ZM37.0755 48.7566L36.9867 48.9117L36.4319 48.6015L36.5208 48.4464C36.6096 48.2913 36.798 48.2359 36.9535 48.3245C37.1087 48.4131 37.1642 48.6015 37.0755 48.7566Z" fill="white"/>
<path d="M38.0634 47.1281L37.8082 47.7375L37.7415 47.9148L37.7193 47.9369L36.0994 47.2611L36.1106 47.2278L36.1881 47.0505L36.4433 46.4412L36.6542 46.5298L36.3878 47.1392L36.865 47.3275L37.0979 46.7514L37.3089 46.84L37.0647 47.4273L37.6085 47.6489L37.8635 47.0395L38.0634 47.1281Z" fill="white"/>
<path d="M38.3847 45.5545L38.3737 45.5988L36.7315 45.5324L36.665 45.754L38.074 46.596L38.063 46.6404L38.4512 46.7511L38.5179 46.5406L38.3405 46.4852L38.5402 45.8204L38.7176 45.8758L38.7841 45.6653L38.3847 45.5545ZM38.1407 46.3855L37.0865 45.7651L38.307 45.8204L38.1407 46.3855Z" fill="white"/>
<path d="M38.8398 44.0367L37.0977 43.7375L37.0645 43.9591L38.2517 44.8233L36.9535 44.6017L36.9202 44.8233L38.6622 45.1225L38.6956 44.9009L37.5084 44.0367L38.8064 44.2583L38.8398 44.0367Z" fill="white"/>
<path d="M38.9286 42.6633L38.9398 42.4417L37.1754 42.353L37.1644 42.5746L37.819 42.6079L37.7858 43.2505L37.1312 43.2173L37.1199 43.4388L38.8843 43.5275L38.8953 43.3059L38.0188 43.2616L38.052 42.6189L38.9286 42.6633Z" fill="white"/>
<path d="M38.9171 41.9425L37.1642 42.0533V42.02L37.142 41.8317L37.1087 41.1669L37.3307 41.1558L37.3749 41.8095L37.8743 41.7874L37.8411 41.1558L38.0628 41.1447L38.1073 41.7763L38.6842 41.7319L38.6399 41.0782L38.8729 41.0672L38.9061 41.7209L38.9171 41.9092V41.9425Z" fill="white"/>
<path d="M38.7841 40.3472L37.9076 40.5023L37.7966 39.8597L38.6732 39.7046L38.6399 39.483L36.898 39.7821L36.9313 40.0037L37.5859 39.8929L37.6968 40.5356L37.0422 40.6464L37.0755 40.868L38.8174 40.5688L38.7841 40.3472Z" fill="white"/>
<path d="M38.4404 38.7959L36.9869 38.5522L38.2517 38.1755L38.1852 37.965L36.4876 38.4746L36.5541 38.6851L38.0077 38.9289L36.7428 39.3056L36.8093 39.5161L38.5069 39.0064L38.4404 38.7959Z" fill="white"/>
<path d="M38.0073 37.4998L36.3874 38.1867L36.3764 38.1646L36.2987 37.9762L36.0324 37.3779L36.2432 37.2893L36.5094 37.8876L36.9643 37.6992L36.7203 37.112L36.931 37.0234L37.1752 37.5995L37.7189 37.3779L37.4527 36.7685L37.6634 36.6799L37.9186 37.2893L37.9963 37.4665L38.0073 37.4998Z" fill="white"/>
<path d="M68.9949 38.8284V31.9565H69.9043V34.7784H73.4762V31.9565H74.3855V38.8284H73.4762V35.5893H69.9043V38.8284H68.9949Z" fill="white"/>
<path d="M75.6776 38.8284L78.3167 31.9565H79.2963L82.1088 38.8284H81.0729L80.2713 36.7471H77.3979L76.6432 38.8284H75.6776ZM77.6604 36.0065H79.9901L79.2729 34.1034C79.0542 33.5253 78.8917 33.0503 78.7854 32.6784C78.6979 33.119 78.5745 33.5565 78.4151 33.9909L77.6604 36.0065Z" fill="white"/>
<path d="M82.2478 31.9565H83.1665L85.4072 36.1659L87.3665 31.9565H88.2712L85.6931 37.3003C85.3712 37.969 85.1072 38.4065 84.9009 38.6128C84.6947 38.819 84.3994 38.9221 84.015 38.9221C83.7806 38.9221 83.4931 38.8675 83.1525 38.7581V37.98C83.3962 38.1206 83.654 38.1909 83.9259 38.1909C84.1478 38.1909 84.3384 38.1206 84.4978 37.98C84.6603 37.8362 84.8384 37.5112 85.0322 37.005L82.2478 31.9565Z" fill="white"/>
<path d="M94.4758 38.8284H93.5664V36.0581C92.7508 36.3612 92.0367 36.5128 91.4242 36.5128C90.9461 36.5128 90.5242 36.4018 90.1586 36.18C89.793 35.955 89.5477 35.6706 89.4227 35.3268C89.3008 34.9831 89.2398 34.5331 89.2398 33.9768V31.9565H90.1492V33.8925C90.1492 34.6425 90.2852 35.1362 90.557 35.3737C90.832 35.6081 91.1617 35.7253 91.5461 35.7253C92.1867 35.7253 92.8602 35.5831 93.5664 35.2987V31.9565H94.4758V38.8284Z" fill="white"/>
<path d="M96.5319 38.8284V31.9565H97.4413V34.7784H101.013V31.9565H101.923V38.8284H101.013V35.5893H97.4413V38.8284H96.5319Z" fill="white"/>
<path d="M103.693 35.4815C103.693 34.3409 103.999 33.4487 104.611 32.805C105.224 32.1581 106.015 31.8346 106.983 31.8346C107.618 31.8346 108.19 31.9862 108.699 32.2893C109.208 32.5925 109.596 33.0159 109.861 33.5596C110.13 34.1003 110.265 34.7143 110.265 35.4018C110.265 36.0987 110.124 36.7221 109.843 37.2721C109.561 37.8221 109.163 38.2393 108.647 38.5237C108.132 38.805 107.576 38.9456 106.979 38.9456C106.332 38.9456 105.754 38.7893 105.244 38.4768C104.735 38.1643 104.349 37.7378 104.086 37.1971C103.824 36.6565 103.693 36.0846 103.693 35.4815ZM104.63 35.4956C104.63 36.3237 104.852 36.9768 105.296 37.455C105.743 37.93 106.302 38.1675 106.974 38.1675C107.658 38.1675 108.221 37.9268 108.661 37.4456C109.105 36.9643 109.327 36.2815 109.327 35.3971C109.327 34.8378 109.232 34.3503 109.041 33.9346C108.854 33.5159 108.577 33.1925 108.211 32.9643C107.849 32.7331 107.441 32.6175 106.988 32.6175C106.344 32.6175 105.79 32.8393 105.324 33.2831C104.861 33.7237 104.63 34.4612 104.63 35.4956Z" fill="white"/>
<path d="M111.533 36.7659V35.9175H114.125V36.7659H111.533Z" fill="white"/>
<path d="M115.703 31.9565H121.108V38.8284H120.194V32.7675H116.613V38.8284H115.703V31.9565Z" fill="white"/>
<path d="M123.122 38.8284V31.9565H125.714C126.17 31.9565 126.519 31.9784 126.76 32.0221C127.097 32.0784 127.38 32.1862 127.608 32.3456C127.836 32.5018 128.019 32.7221 128.156 33.0065C128.297 33.2909 128.367 33.6034 128.367 33.944C128.367 34.5284 128.181 35.0237 127.81 35.43C127.438 35.8331 126.766 36.0346 125.794 36.0346H124.031V38.8284H123.122ZM124.031 35.2237H125.808C126.395 35.2237 126.813 35.1143 127.06 34.8956C127.306 34.6768 127.43 34.369 127.43 33.9721C127.43 33.6846 127.356 33.4393 127.21 33.2362C127.066 33.03 126.875 32.894 126.638 32.8284C126.485 32.7878 126.202 32.7675 125.789 32.7675H124.031V35.2237Z" fill="white"/>
<path d="M129.561 35.4815C129.561 34.3409 129.867 33.4487 130.48 32.805C131.092 32.1581 131.883 31.8346 132.852 31.8346C133.486 31.8346 134.058 31.9862 134.567 32.2893C135.077 32.5925 135.464 33.0159 135.73 33.5596C135.998 34.1003 136.133 34.7143 136.133 35.4018C136.133 36.0987 135.992 36.7221 135.711 37.2721C135.43 37.8221 135.031 38.2393 134.516 38.5237C134 38.805 133.444 38.9456 132.847 38.9456C132.2 38.9456 131.622 38.7893 131.113 38.4768C130.603 38.1643 130.217 37.7378 129.955 37.1971C129.692 36.6565 129.561 36.0846 129.561 35.4815ZM130.498 35.4956C130.498 36.3237 130.72 36.9768 131.164 37.455C131.611 37.93 132.17 38.1675 132.842 38.1675C133.527 38.1675 134.089 37.9268 134.53 37.4456C134.973 36.9643 135.195 36.2815 135.195 35.3971C135.195 34.8378 135.1 34.3503 134.909 33.9346C134.722 33.5159 134.445 33.1925 134.08 32.9643C133.717 32.7331 133.309 32.6175 132.856 32.6175C132.213 32.6175 131.658 32.8393 131.192 33.2831C130.73 33.7237 130.498 34.4612 130.498 35.4956Z" fill="white"/>
<path d="M137.851 31.9565H138.676V37.3987L142.333 31.9565H143.247V38.8284H142.422V33.4003L138.761 38.8284H137.851V31.9565Z" fill="white"/>
<path d="M144.89 36.8878L145.758 36.6628C145.823 36.9971 145.998 37.3315 146.283 37.6659C146.57 38.0003 146.95 38.1675 147.422 38.1675C147.903 38.1675 148.283 38.044 148.561 37.7971C148.839 37.5503 148.978 37.2518 148.978 36.9018C148.978 36.5237 148.831 36.2237 148.537 36.0018C148.244 35.7768 147.844 35.6643 147.337 35.6643H146.901V34.8721C147.32 34.8721 147.64 34.8487 147.862 34.8018C148.084 34.7518 148.279 34.6284 148.448 34.4315C148.62 34.2315 148.706 34.005 148.706 33.7518C148.706 33.4518 148.589 33.1909 148.354 32.969C148.123 32.7471 147.809 32.6362 147.412 32.6362C147.065 32.6362 146.769 32.7237 146.522 32.8987C146.278 33.0706 146.109 33.3003 146.015 33.5878C145.922 33.8721 145.875 34.0846 145.875 34.2253L145.003 34.0284C145.219 32.569 146.025 31.8393 147.422 31.8393C148.094 31.8393 148.626 32.0268 149.02 32.4018C149.414 32.7737 149.611 33.2096 149.611 33.7096C149.611 34.3503 149.308 34.8471 148.701 35.2003C149.051 35.2971 149.344 35.4956 149.578 35.7956C149.815 36.0925 149.934 36.4487 149.934 36.8643C149.934 37.455 149.704 37.9503 149.245 38.3503C148.789 38.7471 148.183 38.9456 147.426 38.9456C146.126 38.9456 145.281 38.2596 144.89 36.8878Z" fill="white"/>
<path d="M151.559 38.8284V31.9565H154.137C154.662 31.9565 155.082 32.0268 155.398 32.1675C155.717 32.305 155.965 32.519 156.143 32.8096C156.325 33.0971 156.415 33.3987 156.415 33.7143C156.415 34.0081 156.336 34.2846 156.176 34.544C156.017 34.8034 155.776 35.0128 155.454 35.1721C155.87 35.294 156.189 35.5018 156.411 35.7956C156.636 36.0893 156.748 36.4362 156.748 36.8362C156.748 37.1581 156.679 37.4581 156.542 37.7362C156.407 38.0112 156.24 38.2237 156.04 38.3737C155.84 38.5237 155.589 38.6378 155.286 38.7159C154.986 38.7909 154.617 38.8284 154.179 38.8284H151.559ZM152.468 34.844H153.954C154.357 34.844 154.647 34.8175 154.822 34.7643C155.053 34.6956 155.226 34.5815 155.342 34.4221C155.461 34.2628 155.52 34.0628 155.52 33.8221C155.52 33.594 155.465 33.394 155.356 33.2221C155.247 33.0471 155.09 32.9284 154.887 32.8659C154.684 32.8003 154.336 32.7675 153.842 32.7675H152.468V34.844ZM152.468 38.0175H154.179C154.473 38.0175 154.679 38.0065 154.798 37.9846C155.007 37.9471 155.182 37.8846 155.323 37.7971C155.464 37.7096 155.579 37.5831 155.67 37.4175C155.761 37.2487 155.806 37.055 155.806 36.8362C155.806 36.58 155.74 36.3581 155.609 36.1706C155.478 35.98 155.295 35.8471 155.061 35.7721C154.829 35.694 154.495 35.655 154.057 35.655H152.468V38.0175Z" fill="white"/>
<path d="M157.932 35.4815C157.932 34.3409 158.239 33.4487 158.851 32.805C159.464 32.1581 160.254 31.8346 161.223 31.8346C161.857 31.8346 162.429 31.9862 162.939 32.2893C163.448 32.5925 163.835 33.0159 164.101 33.5596C164.37 34.1003 164.504 34.7143 164.504 35.4018C164.504 36.0987 164.364 36.7221 164.082 37.2721C163.801 37.8221 163.403 38.2393 162.887 38.5237C162.371 38.805 161.815 38.9456 161.218 38.9456C160.571 38.9456 159.993 38.7893 159.484 38.4768C158.975 38.1643 158.589 37.7378 158.326 37.1971C158.064 36.6565 157.932 36.0846 157.932 35.4815ZM158.87 35.4956C158.87 36.3237 159.092 36.9768 159.535 37.455C159.982 37.93 160.542 38.1675 161.214 38.1675C161.898 38.1675 162.46 37.9268 162.901 37.4456C163.345 36.9643 163.567 36.2815 163.567 35.3971C163.567 34.8378 163.471 34.3503 163.281 33.9346C163.093 33.5159 162.817 33.1925 162.451 32.9643C162.089 32.7331 161.681 32.6175 161.228 32.6175C160.584 32.6175 160.029 32.8393 159.564 33.2831C159.101 33.7237 158.87 34.4612 158.87 35.4956Z" fill="white"/>
<path d="M166.617 31.9565H170.798V38.0175H171.417V40.4315H170.606V38.8284H166.063V40.4315H165.253V38.0175H165.787C166.34 37.1831 166.617 35.4971 166.617 32.9596V31.9565ZM169.888 32.7675H167.493V33.119C167.493 33.7034 167.44 34.5034 167.334 35.519C167.231 36.5315 167.026 37.3643 166.72 38.0175H169.888V32.7675Z" fill="white"/>
<path d="M177.931 36.419L178.84 36.6487C178.649 37.3956 178.306 37.9659 177.809 38.3596C177.315 38.7503 176.71 38.9456 175.995 38.9456C175.254 38.9456 174.651 38.7956 174.185 38.4956C173.723 38.1925 173.37 37.755 173.126 37.1831C172.885 36.6112 172.765 35.9971 172.765 35.3409C172.765 34.6253 172.901 34.0018 173.173 33.4706C173.448 32.9362 173.837 32.5315 174.34 32.2565C174.846 31.9784 175.402 31.8393 176.009 31.8393C176.696 31.8393 177.274 32.0143 177.743 32.3643C178.212 32.7143 178.538 33.2065 178.723 33.8409L177.827 34.0518C177.668 33.5518 177.437 33.1878 177.134 32.9596C176.831 32.7315 176.449 32.6175 175.99 32.6175C175.462 32.6175 175.02 32.744 174.663 32.9971C174.31 33.2503 174.062 33.5909 173.918 34.019C173.774 34.444 173.702 34.8831 173.702 35.3362C173.702 35.9206 173.787 36.4315 173.956 36.869C174.127 37.3034 174.393 37.6284 174.752 37.844C175.112 38.0596 175.501 38.1675 175.92 38.1675C176.429 38.1675 176.86 38.0206 177.213 37.7268C177.566 37.4331 177.806 36.9971 177.931 36.419Z" fill="white"/>
<path d="M181.923 38.8284V32.7675H179.659V31.9565H185.105V32.7675H182.832V38.8284H181.923Z" fill="white"/>
<path d="M186.533 38.8284V31.9565H189.112C189.637 31.9565 190.057 32.0268 190.372 32.1675C190.691 32.305 190.94 32.519 191.118 32.8096C191.299 33.0971 191.39 33.3987 191.39 33.7143C191.39 34.0081 191.31 34.2846 191.151 34.544C190.991 34.8034 190.751 35.0128 190.429 35.1721C190.844 35.294 191.163 35.5018 191.385 35.7956C191.61 36.0893 191.722 36.4362 191.722 36.8362C191.722 37.1581 191.654 37.4581 191.516 37.7362C191.382 38.0112 191.215 38.2237 191.015 38.3737C190.815 38.5237 190.563 38.6378 190.26 38.7159C189.96 38.7909 189.591 38.8284 189.154 38.8284H186.533ZM187.443 34.844H188.929C189.332 34.844 189.621 34.8175 189.796 34.7643C190.027 34.6956 190.201 34.5815 190.316 34.4221C190.435 34.2628 190.494 34.0628 190.494 33.8221C190.494 33.594 190.44 33.394 190.33 33.2221C190.221 33.0471 190.065 32.9284 189.862 32.8659C189.658 32.8003 189.31 32.7675 188.816 32.7675H187.443V34.844ZM187.443 38.0175H189.154C189.447 38.0175 189.654 38.0065 189.772 37.9846C189.982 37.9471 190.157 37.8846 190.297 37.7971C190.438 37.7096 190.554 37.5831 190.644 37.4175C190.735 37.2487 190.78 37.055 190.78 36.8362C190.78 36.58 190.715 36.3581 190.583 36.1706C190.452 35.98 190.269 35.8471 190.035 35.7721C189.804 35.694 189.469 35.655 189.032 35.655H187.443V38.0175Z" fill="white"/>
<path d="M193.521 38.8284V31.9565H198.49V32.7675H194.43V34.8721H198.232V35.6784H194.43V38.0175H198.649V38.8284H193.521Z" fill="white"/>
<path d="M200.461 38.8284V31.9565H201.371V34.7784H204.943V31.9565H205.852V38.8284H204.943V35.5893H201.371V38.8284H200.461Z" fill="white"/>
<path d="M207.927 38.8284V31.9565H208.836V34.7784H212.408V31.9565H213.317V38.8284H212.408V35.5893H208.836V38.8284H207.927Z" fill="white"/>
<path d="M215.088 35.4815C215.088 34.3409 215.394 33.4487 216.006 32.805C216.619 32.1581 217.409 31.8346 218.378 31.8346C219.013 31.8346 219.584 31.9862 220.094 32.2893C220.603 32.5925 220.991 33.0159 221.256 33.5596C221.525 34.1003 221.659 34.7143 221.659 35.4018C221.659 36.0987 221.519 36.7221 221.238 37.2721C220.956 37.8221 220.558 38.2393 220.042 38.5237C219.527 38.805 218.97 38.9456 218.374 38.9456C217.727 38.9456 217.149 38.7893 216.639 38.4768C216.13 38.1643 215.744 37.7378 215.481 37.1971C215.219 36.6565 215.088 36.0846 215.088 35.4815ZM216.025 35.4956C216.025 36.3237 216.247 36.9768 216.691 37.455C217.138 37.93 217.697 38.1675 218.369 38.1675C219.053 38.1675 219.616 37.9268 220.056 37.4456C220.5 36.9643 220.722 36.2815 220.722 35.3971C220.722 34.8378 220.627 34.3503 220.436 33.9346C220.249 33.5159 219.972 33.1925 219.606 32.9643C219.244 32.7331 218.836 32.6175 218.383 32.6175C217.739 32.6175 217.184 32.8393 216.719 33.2831C216.256 33.7237 216.025 34.4612 216.025 35.4956Z" fill="white"/>
<path d="M223.383 38.8284V31.9565H228.352V32.7675H224.292V34.8721H228.094V35.6784H224.292V38.0175H228.511V38.8284H223.383Z" fill="white"/>
<path d="M68.6902 49.1958C68.6902 48.0552 68.9965 47.163 69.609 46.5192C70.2215 45.8724 71.0121 45.5489 71.9809 45.5489C72.6152 45.5489 73.1871 45.7005 73.6965 46.0036C74.2058 46.3067 74.5933 46.7302 74.859 47.2739C75.1277 47.8146 75.2621 48.4286 75.2621 49.1161C75.2621 49.813 75.1215 50.4364 74.8402 50.9864C74.559 51.5364 74.1605 51.9536 73.6449 52.238C73.1293 52.5192 72.573 52.6599 71.9762 52.6599C71.3293 52.6599 70.7512 52.5036 70.2418 52.1911C69.7324 51.8786 69.3465 51.4521 69.084 50.9114C68.8215 50.3708 68.6902 49.7989 68.6902 49.1958ZM69.6277 49.2099C69.6277 50.038 69.8496 50.6911 70.2934 51.1692C70.7402 51.6442 71.2996 51.8817 71.9715 51.8817C72.6558 51.8817 73.2183 51.6411 73.659 51.1599C74.1027 50.6786 74.3246 49.9958 74.3246 49.1114C74.3246 48.5521 74.2293 48.0646 74.0387 47.6489C73.8512 47.2302 73.5746 46.9067 73.209 46.6786C72.8465 46.4474 72.4387 46.3317 71.9855 46.3317C71.3418 46.3317 70.7871 46.5536 70.3215 46.9974C69.859 47.438 69.6277 48.1755 69.6277 49.2099Z" fill="white"/>
<path d="M77.0089 45.6708H81.4667V46.4817H77.9182V48.6005H79.5588C80.1651 48.6005 80.6464 48.6583 81.0026 48.7739C81.362 48.8896 81.6495 49.1083 81.8651 49.4302C82.0807 49.7489 82.1885 50.1208 82.1885 50.5458C82.1885 50.8927 82.1104 51.2177 81.9542 51.5208C81.801 51.8208 81.5713 52.0661 81.2651 52.2567C80.9588 52.4474 80.437 52.5427 79.6995 52.5427H77.0089V45.6708ZM77.9182 51.7692H79.737C80.2276 51.7692 80.5948 51.6692 80.8385 51.4692C81.0854 51.2692 81.2088 50.9692 81.2088 50.5692C81.2088 50.2849 81.1385 50.0474 80.9979 49.8567C80.8573 49.6661 80.662 49.5396 80.412 49.4771C80.162 49.4146 79.7354 49.3833 79.1323 49.3833H77.9182V51.7692Z" fill="white"/>
<path d="M82.7353 45.6708H85.7353V48.6052H87.3806C88.4587 48.6052 89.165 48.8052 89.4994 49.2052C89.8369 49.6052 90.0056 50.0552 90.0056 50.5552C90.0056 51.1302 89.8103 51.6052 89.4197 51.9802C89.0322 52.3552 88.3712 52.5427 87.4369 52.5427H84.8259V46.4817H82.7353V45.6708ZM85.7353 51.7692H87.3993C87.9712 51.7692 88.3853 51.6739 88.6415 51.4833C88.8978 51.2896 89.0259 50.9833 89.0259 50.5646C89.0259 50.2802 88.9494 50.0411 88.7962 49.8474C88.6462 49.6505 88.4462 49.5255 88.1962 49.4724C87.9462 49.4161 87.5306 49.388 86.9493 49.388H85.7353V51.7692Z" fill="white"/>
<path d="M91.6258 52.5427V45.6708H96.5945V46.4817H92.5352V48.5864H96.3367V49.3927H92.5352V51.7317H96.7539V52.5427H91.6258Z" fill="white"/>
<path d="M99.1616 45.6708H103.343V51.7317H103.962V54.1458H103.151V52.5427H98.6085V54.1458H97.7975V51.7317H98.3319C98.885 50.8974 99.1616 49.2114 99.1616 46.6739V45.6708ZM102.433 46.4817H100.038V46.8333C100.038 47.4177 99.985 48.2177 99.8788 49.2333C99.7757 50.2458 99.571 51.0786 99.2647 51.7317H102.433V46.4817Z" fill="white"/>
<path d="M105.586 45.6708H106.411V51.113L110.068 45.6708H110.982V52.5427H110.157V47.1146L106.496 52.5427H105.586V45.6708Z" fill="white"/>
<path d="M113.029 52.5427V45.6708H113.938V48.4927H117.51V45.6708H118.419V52.5427H117.51V49.3036H113.938V52.5427H113.029Z" fill="white"/>
<path d="M120.485 52.5427V45.6708H125.453V46.4817H121.394V48.5864H125.196V49.3927H121.394V51.7317H125.613V52.5427H120.485Z" fill="white"/>
<path d="M127.425 52.5427V45.6708H128.335V48.4927H131.906V45.6708H132.816V52.5427H131.906V49.3036H128.335V52.5427H127.425Z" fill="white"/>
<path d="M134.877 45.6708H135.702V51.113L139.358 45.6708H140.272V52.5427H139.447V47.1146L135.786 52.5427H134.877V45.6708Z" fill="white"/>
<path d="M142.309 52.5427V45.6708H147.278V46.4817H143.219V48.5864H147.02V49.3927H143.219V51.7317H147.437V52.5427H142.309Z" fill="white"/>
<path d="M77.0922 23.7428H75.1516L74.3802 21.7359H70.8485L70.1193 23.7428H68.2268L71.6681 14.9076H73.5545L77.0922 23.7428ZM73.8076 20.2473L72.5902 16.9687L71.3969 20.2473H73.8076Z" fill="white"/>
<path d="M78.6676 23.7428V14.9076H80.4516V18.385H83.9471V14.9076H85.731V23.7428H83.9471V19.8797H80.4516V23.7428H78.6676Z" fill="white"/>
<path d="M88.9096 14.9076H95.0147V22.2602H95.7922V25.6714H94.3096V23.7428H88.7468V25.6714H87.2643V22.2602H88.0116C88.3772 21.5049 88.6183 20.629 88.7348 19.6326C88.8513 18.6321 88.9096 17.3685 88.9096 15.8417V14.9076ZM90.6091 16.3901C90.6091 19.0741 90.366 21.0308 89.8799 22.2602H93.2368V16.3901H90.6091Z" fill="white"/>
<path d="M97.6147 23.7428V14.9076H100.477C101.562 14.9076 102.269 14.9518 102.599 15.0401C103.105 15.1727 103.529 15.462 103.87 15.908C104.212 16.35 104.383 16.9225 104.383 17.6256C104.383 18.168 104.284 18.6241 104.087 18.9937C103.891 19.3634 103.639 19.6547 103.334 19.8676C103.033 20.0765 102.725 20.2151 102.412 20.2834C101.986 20.3678 101.369 20.41 100.562 20.41H99.3986V23.7428H97.6147ZM99.3986 16.4022V18.9093H100.375C101.078 18.9093 101.548 18.8631 101.785 18.7707C102.022 18.6783 102.207 18.5337 102.34 18.3368C102.476 18.1399 102.545 17.9109 102.545 17.6497C102.545 17.3283 102.45 17.0631 102.261 16.8542C102.072 16.6453 101.833 16.5147 101.544 16.4625C101.331 16.4223 100.903 16.4022 100.26 16.4022H99.3986Z" fill="white"/>
<path d="M105.934 19.3794C105.934 18.4794 106.069 17.7241 106.338 17.1134C106.539 16.6634 106.812 16.2596 107.157 15.902C107.507 15.5444 107.889 15.2792 108.303 15.1064C108.853 14.8734 109.488 14.7569 110.207 14.7569C111.509 14.7569 112.549 15.1607 113.329 15.9683C114.112 16.7759 114.504 17.8988 114.504 19.3372C114.504 20.7636 114.116 21.8805 113.341 22.6881C112.566 23.4917 111.529 23.8935 110.231 23.8935C108.917 23.8935 107.873 23.4937 107.097 22.6942C106.322 21.8906 105.934 20.7857 105.934 19.3794ZM107.772 19.3192C107.772 20.3196 108.003 21.079 108.465 21.5973C108.927 22.1116 109.514 22.3687 110.225 22.3687C110.936 22.3687 111.519 22.1136 111.973 21.6033C112.431 21.089 112.66 20.3196 112.66 19.2951C112.66 18.2826 112.437 17.5272 111.991 17.029C111.549 16.5308 110.96 16.2817 110.225 16.2817C109.49 16.2817 108.897 16.5348 108.447 17.041C107.997 17.5433 107.772 18.3026 107.772 19.3192Z" fill="white"/>
<path d="M116.544 14.9076H118.213V20.7897L121.793 14.9076H123.571V23.7428H121.901V17.9752L118.328 23.7428H116.544V14.9076Z" fill="white"/>
<path d="M126.719 14.9076H132.824V22.2602H133.602V25.6714H132.119V23.7428H126.556V25.6714H125.074V22.2602H125.821C126.187 21.5049 126.428 20.629 126.544 19.6326C126.661 18.6321 126.719 17.3685 126.719 15.8417V14.9076ZM128.419 16.3901C128.419 19.0741 128.176 21.0308 127.69 22.2602H131.046V16.3901H128.419Z" fill="white"/>
<path d="M135.43 23.7428V14.9076H137.214V18.385H140.71V14.9076H142.494V23.7428H140.71V19.8797H137.214V23.7428H135.43Z" fill="white"/>
<path d="M152.928 23.7428H150.988L150.216 21.7359H146.685L145.955 23.7428H144.063L147.504 14.9076H149.391L152.928 23.7428ZM149.644 20.2473L148.426 16.9687L147.233 20.2473H149.644Z" fill="white"/>
<path d="M159.783 23.7428V20.0544H159.422C158.859 20.0544 158.461 20.1388 158.228 20.3076C157.999 20.4763 157.606 20.9805 157.047 21.8203L155.757 23.7428H153.624L154.703 22.0192C155.129 21.3361 155.468 20.858 155.721 20.5848C155.974 20.3076 156.292 20.0605 156.674 19.8435C155.85 19.7149 155.255 19.4297 154.89 18.9877C154.524 18.5417 154.341 18.0093 154.341 17.3906C154.341 16.8522 154.476 16.3761 154.745 15.9622C155.018 15.5444 155.376 15.2651 155.818 15.1245C156.264 14.9799 156.929 14.9076 157.813 14.9076H161.567V23.7428H159.783ZM159.783 16.4022H158.391C157.684 16.4022 157.218 16.4183 156.993 16.4504C156.772 16.4826 156.581 16.591 156.42 16.7759C156.26 16.9607 156.179 17.2018 156.179 17.4991C156.179 17.8084 156.256 18.0555 156.408 18.2404C156.565 18.4212 156.762 18.5337 156.999 18.5779C157.24 18.6221 157.728 18.6442 158.464 18.6442H159.783V16.4022Z" fill="white"/>
<path d="M170.028 23.7428V16.4022H167.406V14.9076H174.427V16.4022H171.812V23.7428H170.028Z" fill="white"/>
<path d="M176.202 23.7428V14.9076H182.753V16.4022H177.985V18.3609H182.421V19.8495H177.985V22.2542H182.921V23.7428H176.202Z" fill="white"/>
<path d="M184.153 23.7428L187.173 19.1323L184.437 14.9076H186.522L188.294 17.7462L190.029 14.9076H192.097L189.348 19.1986L192.368 23.7428H190.216L188.258 20.6872L186.293 23.7428H184.153Z" fill="white"/>
<path d="M193.907 23.7428V14.9076H195.691V18.385H199.186V14.9076H200.97V23.7428H199.186V19.8797H195.691V23.7428H193.907Z" fill="white"/>
<path d="M203.462 14.9076H205.131V20.7897L208.711 14.9076H210.489V23.7428H208.82V17.9752L205.246 23.7428H203.462V14.9076Z" fill="white"/>
<path d="M212.956 14.9076H214.74V18.6683C215.138 18.6281 215.407 18.5256 215.548 18.3609C215.689 18.1962 215.906 17.7381 216.199 16.9868C216.569 16.0305 216.94 15.4359 217.314 15.2029C217.683 14.9698 218.28 14.8533 219.104 14.8533C219.144 14.8533 219.23 14.8513 219.363 14.8473V16.1672L219.11 16.1611C218.744 16.1611 218.477 16.2073 218.308 16.2997C218.14 16.3881 218.003 16.5247 217.898 16.7096C217.794 16.8944 217.639 17.2741 217.434 17.8486C217.326 18.154 217.207 18.4091 217.079 18.614C216.954 18.8189 216.731 19.0118 216.41 19.1926C216.808 19.3051 217.135 19.5321 217.392 19.8736C217.653 20.2151 217.939 20.6973 218.248 21.3201L219.453 23.7428H217.356L216.301 21.4587C216.285 21.4265 216.251 21.3643 216.199 21.2718C216.179 21.2397 216.104 21.1011 215.976 20.856C215.747 20.4221 215.558 20.1509 215.409 20.0424C215.265 19.9339 215.042 19.8776 214.74 19.8736V23.7428H212.956V14.9076Z" fill="white"/>
<path d="M229.044 23.7428H227.104L226.332 21.7359H222.801L222.071 23.7428H220.179L223.62 14.9076H225.507L229.044 23.7428ZM225.76 20.2473L224.542 16.9687L223.349 20.2473H225.76Z" fill="white"/>
<path fill-rule="evenodd" clip-rule="evenodd" d="M14.579 27.586L14.652 27.5492C17.6536 25.3071 21.3669 23.9838 25.3903 23.9838C33.4281 23.9838 40.2433 29.2768 42.5789 36.5914L42.6245 36.7201C42.9894 37.8319 43.2266 39.0174 43.3452 40.2303C43.4091 40.8644 43.4456 41.5168 43.4456 42.1692C43.4456 43.226 43.3544 44.2552 43.181 45.266C42.9438 46.7546 42.5515 48.1698 42.0223 49.4103C37.1869 60.7774 22.5712 63.8649 13.7853 56.1092C12.9095 55.3649 12.0975 54.5471 11.3767 53.6465C10.9023 53.0676 10.4735 52.4795 10.0812 51.8271C9.3057 50.5865 8.6853 49.2541 8.22001 47.839L4.00498 43.7038L0.300866 47.1957C2.62734 59.013 12.9733 67.9174 25.3812 67.9174C39.5043 67.9174 50.9542 56.3849 50.9542 42.1601C50.9542 31.4179 44.4218 22.2103 35.1433 18.3509C32.242 17.2022 28.9849 16.513 25.4086 16.4119H25.3903C24.551 16.4119 23.7116 16.4579 22.8905 16.5314V15.4011L22.8996 8.59194L40.9275 8.58275L40.964 0.376806C39.1576 -0.202113 18.274 0.202211 14.579 0.211401V27.586Z" fill="white"/>
<path fill-rule="evenodd" clip-rule="evenodd" d="M0.100151 7.59032C0.136645 9.3087 0.136645 12.5709 0.118398 16.4579C0.100151 20.8871 0.063657 26.1433 0.0454102 30.8757L4.04147 27.1173L7.85507 30.8574L7.90981 0.33086L0.100151 6.94708V7.59032ZM0.0454102 34.4136C0.0454102 35.4611 0.0454102 36.4628 0.0545336 37.4001L4.0506 33.6417L7.85507 37.3725L7.86419 34.4595L4.02323 30.6828L0.0545336 34.4136H0.0454102ZM0.0910273 40.8919C0.118398 42.2244 0.154891 43.2352 0.209632 43.7774L4.0506 40.1568L7.84595 43.8784L7.85507 40.9655L4.02323 37.2071L0.100151 40.9011L0.0910273 40.8919Z" fill="white"/>
</svg>
